<?xml version="1.0" standalone="no"?>
<!DOCTYPE svg PUBLIC "-//W3C//DTD SVG 20010904//EN"
 "http://www.w3.org/TR/2001/REC-SVG-20010904/DTD/svg10.dtd">
<svg version="1.0" xmlns="http://www.w3.org/2000/svg"
 width="96.000000pt" height="108.000000pt" viewBox="0 0 96.000000 108.000000"
 preserveAspectRatio="xMidYMid meet">

<g transform="translate(0.000000,108.000000) scale(0.100000,-0.100000)"
fill="#000000" stroke="none">
<path d="M6 1064 c-11 -29 -7 -579 5 -591 8 -8 8 -13 0 -17 -12 -8 -16 -411
-5 -440 5 -14 57 -16 479 -16 l473 0 1 147 c0 93 -3 151 -10 160 -9 10 -49 13
-160 13 -93 0 -149 4 -149 10 0 6 -112 10 -315 10 l-316 0 3 58 3 57 459 3
c319 1 463 6 473 13 9 8 12 33 11 78 l-2 66 -5 -70 -6 -70 -465 0 -465 0 -3
58 -3 57 316 0 c203 0 315 4 315 10 0 6 56 10 148 10 102 0 152 4 160 12 16
16 16 130 0 146 -8 8 -58 12 -160 12 -92 0 -148 4 -148 10 0 6 -112 10 -315
10 l-315 0 0 45 0 45 315 0 c276 0 315 2 315 15 0 13 21 15 153 13 l152 -3 6
-70 5 -70 2 66 c1 39 -3 70 -10 77 -8 8 -58 12 -159 12 -121 0 -148 3 -153 15
-5 13 -49 15 -316 15 l-311 0 3 53 3 52 475 5 475 5 -476 3 c-427 2 -477 0
-483 -14z m944 -368 c0 -49 -4 -65 -16 -70 -9 -3 -78 -6 -155 -6 -117 0 -139
2 -139 15 0 13 -42 15 -315 15 l-315 0 0 45 0 45 315 0 c203 0 315 4 315 10 0
6 58 10 155 10 l155 0 0 -64z m-2 -458 l3 -68 -156 0 c-97 0 -155 4 -155 10 0
6 -112 10 -315 10 l-315 0 0 45 0 45 315 0 c276 0 315 2 315 15 0 13 21 15
153 13 l152 -3 3 -67z m0 -155 l-3 -68 -465 0 -465 0 -3 58 -3 57 316 0 c203
0 315 4 315 10 0 6 58 10 155 10 l156 0 -3 -67z"/>
<path d="M953 1000 c0 -36 2 -50 4 -32 2 17 2 47 0 65 -2 17 -4 3 -4 -33z"/>
<path d="M953 390 c0 -36 2 -50 4 -32 2 17 2 47 0 65 -2 17 -4 3 -4 -33z"/>
</g>
</svg>
